<?xml version="1.0" encoding="UTF-8"?>
<!-- Generated by Pixelmator Pro 3.3.13 -->
<svg width="1024" height="1024" viewBox="0 0 1024 1024" xmlns="http://www.w3.org/2000/svg">
    <linearGradient id="linearGradient1" x1="512" y1="0" x2="512" y2="1024" gradientUnits="userSpaceOnUse">
        <stop offset="0" stop-color="#ff5300" stop-opacity="1"/>
        <stop offset="1" stop-color="#ff3800" stop-opacity="1"/>
    </linearGradient>
    <path id="Base" fill="url(#linearGradient1)" fill-rule="evenodd" stroke="none" d="M 1024 512 C 1024 229.230225 794.769775 0 512 0 C 229.230209 0 0 229.230225 0 512 C 0 794.769775 229.230209 1024 512 1024 C 794.769775 1024 1024 794.769775 1024 512 Z"/>
    <g id="Glyph">
        <path id="Vertical" fill="#ffffff" fill-rule="evenodd" stroke="none" d="M 436.210938 638.46875 C 436.210938 676.869812 467.341125 708 505.742188 708 L 517.5625 708 C 555.963562 708 587.09375 676.869812 587.09375 638.46875 L 587.09375 199.53125 C 587.09375 161.130188 555.963562 130 517.5625 130 L 505.742188 130 C 467.341125 130 436.210938 161.130188 436.210938 199.53125 Z"/>
        <path id="Ellipse" fill="#ffffff" fill-rule="evenodd" stroke="none" d="M 587 819 C 587 777.578613 553.421387 744 512 744 C 470.578644 744 437 777.578613 437 819 C 437 860.421387 470.578644 894 512 894 C 553.421387 894 587 860.421387 587 819 Z"/>
    </g>
</svg>
