<?xml version="1.0" encoding="UTF-8"?>
<!-- Generated by Pixelmator Pro 3.3.2 -->
<svg width="1024" height="1024" viewBox="0 0 1024 1024" xmlns="http://www.w3.org/2000/svg" xmlns:xlink="http://www.w3.org/1999/xlink">
    <path id="UpRight" fill="currentColor" fill-rule="evenodd" stroke="none" d="M 77.594917 770.173584 C 38.542488 809.225952 38.542488 872.54248 77.594917 911.59491 L 112.697975 946.697998 C 151.750397 985.750427 215.06691 985.750427 254.119324 946.697998 L 945.697998 255.119324 C 984.750427 216.066833 984.750427 152.750366 945.697998 113.697937 L 910.59491 78.59491 C 871.54248 39.54248 808.226013 39.542419 769.173584 78.59491 Z"/>
    <path id="DownLeft" fill="currentColor" fill-rule="evenodd" stroke="none" d="M 769.173584 946.40509 C 808.226013 985.45752 871.54248 985.45752 910.59491 946.40509 L 945.697998 911.302002 C 984.750427 872.249634 984.750427 808.933105 945.697998 769.880676 L 254.119324 78.302002 C 215.066864 39.249573 151.750381 39.249573 112.69796 78.302002 L 77.594902 113.40509 C 38.542477 152.45752 38.542446 215.773987 77.594902 254.826416 Z"/>
</svg>
