<?xml version="1.0" encoding="UTF-8"?>
<!-- Generated by Pixelmator Pro 3.4.1 -->
<svg width="1024" height="1024" viewBox="0 0 1024 1024" xmlns="http://www.w3.org/2000/svg">
    <linearGradient id="linearGradient1" x1="512" y1="0" x2="512" y2="1024" gradientUnits="userSpaceOnUse">
        <stop offset="0" stop-color="#ff5300" stop-opacity="1"/>
        <stop offset="1" stop-color="#ff3800" stop-opacity="1"/>
    </linearGradient>
    <path id="Base" fill="url(#linearGradient1)" fill-rule="evenodd" stroke="none" d="M 1024 512 C 1024 229.230225 794.769775 0 512 0 C 229.230209 0 0 229.230225 0 512 C 0 794.769775 229.230209 1024 512 1024 C 794.769775 1024 1024 794.769775 1024 512 Z"/>
    <g id="Close">
        <path id="UpRight" fill="#ffffff" fill-rule="evenodd" stroke="none" d="M 182.825165 707.703857 C 153.240494 737.288574 153.240494 785.254761 182.825165 814.839478 L 209.417938 841.432251 C 239.002609 871.016907 286.968811 871.016907 316.553497 841.432251 L 840.467773 317.517944 C 870.052368 287.93335 870.052368 239.967102 840.467712 210.382446 L 813.874939 183.789673 C 784.290283 154.205017 736.324036 154.205017 706.739441 183.789673 Z"/>
        <path id="DownLeft" fill="#ffffff" fill-rule="evenodd" stroke="none" d="M 706.73938 841.210327 C 736.324097 870.794983 784.290283 870.794983 813.874939 841.210327 L 840.467712 814.617554 C 870.052368 785.032898 870.052368 737.06665 840.467712 707.482056 L 316.553467 183.567749 C 286.968842 153.983154 239.002625 153.983154 209.417953 183.56781 L 182.82518 210.160583 C 153.240509 239.745239 153.240509 287.711426 182.82515 317.296082 Z"/>
    </g>
</svg>
