<?xml version="1.0" encoding="UTF-8"?>
<!-- Generated by Pixelmator Pro 3.4.1 -->
<svg width="1024" height="1024" viewBox="0 0 1024 1024" xmlns="http://www.w3.org/2000/svg">
    <linearGradient id="linearGradient1" x1="512" y1="1024" x2="512" y2="0" gradientUnits="userSpaceOnUse">
        <stop offset="0" stop-color="#00b80d" stop-opacity="1"/>
        <stop offset="1" stop-color="#00dd52" stop-opacity="1"/>
    </linearGradient>
    <path id="Base" fill="url(#linearGradient1)" fill-rule="evenodd" stroke="none" d="M 1024 512 C 1024 229.230225 794.769775 0 512 0 C 229.230209 0 0 229.230225 0 512 C 0 794.769775 229.230209 1024 512 1024 C 794.769775 1024 1024 794.769775 1024 512 Z"/>
    <g id="Check">
        <path id="UpRight" fill="#ffffff" fill-rule="evenodd" stroke="none" d="M 351.871094 662.358521 C 329.319794 684.90979 329.319794 721.472595 351.871094 744.023926 L 372.141754 764.294556 C 394.693024 786.845825 431.25589 786.845825 453.807159 764.294556 L 853.167297 364.934448 C 875.718567 342.383118 875.718567 305.820313 853.167297 283.269043 L 832.896606 262.998352 C 810.345337 240.447083 773.782532 240.447083 751.231201 262.998352 Z"/>
        <path id="DownLeft" fill="#ffffff" fill-rule="evenodd" stroke="none" d="M 370.972748 762.681763 C 393.524017 785.233032 430.086853 785.233032 452.638153 762.681763 L 472.908813 742.411133 C 495.460083 719.859802 495.460083 683.296997 472.908813 660.745728 L 273.061646 460.89856 C 250.510391 438.34729 213.94754 438.34729 191.396255 460.89856 L 171.125595 481.169189 C 148.57431 503.72052 148.574326 540.283325 171.12558 562.834595 Z"/>
    </g>
</svg>
