<?xml version="1.0" encoding="UTF-8"?>
<!-- Generated by Pixelmator Pro 3.3.2 -->
<svg width="1024" height="1024" viewBox="0 0 1024 1024" xmlns="http://www.w3.org/2000/svg" xmlns:xlink="http://www.w3.org/1999/xlink">
    <linearGradient id="linearGradient1" x1="512" y1="1070.741146" x2="512" y2="-46.741089" gradientUnits="userSpaceOnUse">
        <stop offset="0" stop-color="#0074c6" stop-opacity="1"/>
        <stop offset="1" stop-color="#31aaff" stop-opacity="1"/>
    </linearGradient>
    <path id="Loader" fill="url(#linearGradient1)" fill-rule="evenodd" stroke="none" d="M 388.416016 1008.982422 C 381.667297 1007.309753 374.972107 1005.501892 368.332031 1003.564453 L 388.40625 1008.943359 L 388.416016 1008.982422 Z M 635.582031 1008.982422 L 635.59375 1008.945313 L 655.738281 1003.546875 C 649.075012 1005.492126 642.354675 1007.303711 635.582031 1008.982422 Z M 867.480469 880.478516 L 836.341797 764.261719 C 890.57251 694.635376 922.876953 607.090454 922.876953 512 C 922.876953 416.909668 890.572876 329.364136 836.341797 259.738281 L 867.480469 143.523438 C 963.979797 236.639038 1024 367.310364 1024 512 C 1024 656.690063 963.979736 787.362305 867.480469 880.478516 Z M 156.519531 880.476563 C 60.02018 787.360962 0 656.689697 0 512 C 0 367.309937 60.020267 236.637695 156.519531 143.521484 L 187.658203 259.738281 C 133.427475 329.364624 101.123047 416.909546 101.123047 512 C 101.123047 607.090332 133.427139 694.635864 187.658203 764.261719 L 156.519531 880.476563 Z M 368.261719 20.453125 C 374.924957 18.507874 381.645325 16.69635 388.417969 15.017578 L 388.40625 15.054688 L 368.261719 20.453125 Z M 655.667969 20.435547 L 635.59375 15.056641 L 635.583984 15.017578 C 642.332703 16.690247 649.027893 18.498108 655.667969 20.435547 Z"/>
</svg>
