<?xml version="1.0" encoding="UTF-8"?>
<!-- Generated by Pixelmator Pro 3.3.13 -->
<svg width="1024" height="1024" viewBox="0 0 1024 1024" xmlns="http://www.w3.org/2000/svg" xmlns:xlink="http://www.w3.org/1999/xlink">
    <g id="Icon">
        <linearGradient id="linearGradient1" x1="0" y1="512" x2="1024" y2="512" gradientUnits="userSpaceOnUse">
            <stop offset="0" stop-color="#00b80d" stop-opacity="1"/>
            <stop offset="1" stop-color="#00dd52" stop-opacity="1"/>
        </linearGradient>
        <path id="Base" fill="url(#linearGradient1)" fill-rule="evenodd" stroke="none" d="M 1024 512 C 1024 229.230225 794.769775 0 512 0 C 229.230209 0 0 229.230225 0 512 C 0 794.769775 229.230209 1024 512 1024 C 794.769775 1024 1024 794.769775 1024 512 Z"/>
        <mask id="mask1" maskUnits="userSpaceOnUse" maskContentUnits="userSpaceOnUse" mask-type="alpha">
            <linearGradient id="linearGradient2" x1="0" y1="512" x2="1024" y2="512" gradientUnits="userSpaceOnUse">
                <stop offset="0" stop-color="#00b80d" stop-opacity="1"/>
                <stop offset="1" stop-color="#00dd52" stop-opacity="1"/>
            </linearGradient>
            <path id="path1" fill="url(#linearGradient2)" fill-rule="evenodd" stroke="none" d="M 1024 512 C 1024 229.230225 794.769775 0 512 0 C 229.230209 0 0 229.230225 0 512 C 0 794.769775 229.230209 1024 512 1024 C 794.769775 1024 1024 794.769775 1024 512 Z"/>
        </mask>
        <g id="Group" mask="url(#mask1)">
            <g id="Users">
                <g id="User">
                    <path id="Body" fill="#ffffff" fill-rule="evenodd" stroke="none" d="M 531.249084 967.027283 C 531.249084 793.491577 433.815277 652.812988 313.624542 652.812988 C 193.433823 652.812988 96 793.491577 96 967.027283 C 96 1140.562988 193.433823 1281.241577 313.624542 1281.241577 C 433.815277 1281.241577 531.249084 1140.562988 531.249084 967.027283 Z"/>
                    <path id="Head" fill="#ffffff" fill-rule="evenodd" stroke="none" d="M 487.866425 457.81427 C 487.866425 361.58313 409.855682 283.572388 313.624542 283.572388 C 217.393417 283.572388 139.382675 361.58313 139.382675 457.81427 C 139.382675 554.04541 217.393417 632.056152 313.624542 632.056152 C 409.855682 632.056152 487.866425 554.04541 487.866425 457.81427 Z"/>
                </g>
                <g id="User-copy">
                    <path id="path2" fill="#ffffff" fill-rule="evenodd" stroke="none" d="M 928 967.027283 C 928 793.491577 830.566162 652.812988 710.375427 652.812988 C 590.184753 652.812988 492.750916 793.491577 492.750916 967.027283 C 492.750916 1140.562988 590.184753 1281.241577 710.375427 1281.241577 C 830.566162 1281.241577 928 1140.562988 928 967.027283 Z"/>
                    <path id="path3" fill="#ffffff" fill-rule="evenodd" stroke="none" d="M 884.61731 457.81427 C 884.61731 361.58313 806.606567 283.572388 710.375427 283.572388 C 614.144287 283.572388 536.133545 361.58313 536.133545 457.81427 C 536.133545 554.04541 614.144287 632.056152 710.375427 632.056152 C 806.606567 632.056152 884.61731 554.04541 884.61731 457.81427 Z"/>
                </g>
            </g>
        </g>
    </g>
</svg>
