<?xml version="1.0" encoding="UTF-8"?>
<!-- Generated by Pixelmator Pro 3.3.2 -->
<svg width="1024" height="1024" viewBox="0 0 1024 1024" xmlns="http://www.w3.org/2000/svg" xmlns:xlink="http://www.w3.org/1999/xlink">
    <path id="Top" fill="currentColor" fill-rule="evenodd" stroke="none" d="M 0 156 C -0 211.228455 44.771526 256 100 256 L 924 256 C 979.228455 256 1024 211.228455 1024 156 L 1024 120 C 1024 64.771545 979.228455 20 924 20 L 100 20 C 44.771526 20 0 64.771545 0 120 Z"/>
    <path id="Middle" fill="currentColor" fill-rule="evenodd" stroke="none" d="M 0 530 C -0 585.228516 44.771526 630 100 630 L 924 630 C 979.228455 630 1024 585.228516 1024 530 L 1024 494 C 1024 438.771545 979.228455 394 924 394 L 100 394 C 44.771526 394 0 438.771545 0 494 Z"/>
    <path id="Bottom" fill="currentColor" fill-rule="evenodd" stroke="none" d="M 0 904 C -0 959.228455 44.771526 1004 100 1004 L 924 1004 C 979.228455 1004 1024 959.228455 1024 904 L 1024 868 C 1024 812.771545 979.228455 768 924 768 L 100 768 C 44.771526 768 0 812.771545 0 868 Z"/>
</svg>
