<?xml version="1.0" encoding="UTF-8"?>
<!-- Generated by Pixelmator Pro 3.3.2 -->
<svg width="1024" height="1024" viewBox="0 0 1024 1024" xmlns="http://www.w3.org/2000/svg" xmlns:xlink="http://www.w3.org/1999/xlink">
    <g id="Glyph">
        <path id="Horizontal" fill="currentColor" fill-rule="evenodd" stroke="none" d="M 100 404 C 44.771526 404 0 448.771545 0 504 L 0 521 C 0 576.228455 44.771526 621 100 621 L 924 621 C 979.228455 621 1024 576.228455 1024 521 L 1024 504 C 1024 448.771545 979.228455 404 924 404 Z"/>
        <path id="Vertical" fill="currentColor" fill-rule="evenodd" stroke="none" d="M 403 924 C 403 979.228455 447.771515 1024 503 1024 L 520 1024 C 575.228455 1024 620 979.228455 620 924 L 620 100 C 620 44.771545 575.228455 0 520 0 L 503 0 C 447.771515 0 403 44.771545 403 100 Z"/>
    </g>
</svg>
