<?xml version="1.0" encoding="UTF-8"?>
<!-- Generated by Pixelmator Pro 3.3.2 -->
<svg width="1024" height="1024" viewBox="0 0 1024 1024" xmlns="http://www.w3.org/2000/svg" xmlns:xlink="http://www.w3.org/1999/xlink">
    <path id="Search" fill="currentColor" fill-rule="evenodd" stroke="none" d="M 949.839844 1023.857422 C 930.811751 1023.77975 911.783282 1016.461021 897.302734 1001.980469 L 560.027344 664.703125 C 502.938037 702.334926 434.563087 724.236328 361.072266 724.236328 C 161.162219 724.236328 -0.898438 562.175656 -0.898438 362.265625 C -0.898438 162.355563 161.162219 0.296875 361.072266 0.296875 C 560.982297 0.296875 723.041016 162.355563 723.041016 362.265625 C 723.041016 435.033767 701.568102 502.788049 664.613281 559.535156 L 1002.181641 897.103516 C 1031.142735 926.06461 1031.338119 973.329885 1002.376953 1002.291016 C 987.896406 1016.771581 968.867937 1023.935094 949.839844 1023.857422 Z M 361.072266 597.302734 C 490.879112 597.302734 596.107422 492.072502 596.107422 362.265625 C 596.107422 232.458809 490.879112 127.230469 361.072266 127.230469 C 231.265419 127.230469 126.035156 232.458809 126.035156 362.265625 C 126.035156 492.072502 231.265419 597.302734 361.072266 597.302734 Z"/>
    <g id="X">
        <path id="UpRight-copy" fill="currentColor" fill-rule="evenodd" stroke="none" d="M 228.775742 440.784668 C 216.911102 452.649353 216.911102 471.885742 228.775742 483.750427 L 239.440536 494.415161 C 251.305191 506.279846 270.541595 506.279846 282.40625 494.415161 L 492.517151 284.30426 C 504.381805 272.439636 504.381805 253.203247 492.517151 241.338562 L 481.852356 230.673767 C 469.987701 218.809143 450.751312 218.809143 438.886658 230.673767 Z"/>
        <path id="DownLeft-copy" fill="currentColor" fill-rule="evenodd" stroke="none" d="M 438.886658 494.326233 C 450.751312 506.190857 469.987701 506.190857 481.852356 494.326233 L 492.517151 483.661438 C 504.381805 471.796753 504.381805 452.560364 492.517151 440.69574 L 282.40625 230.584778 C 270.541595 218.720154 251.305176 218.720154 239.440521 230.584778 L 228.775742 241.249573 C 216.911087 253.114258 216.911102 272.350647 228.775742 284.215271 Z"/>
    </g>
</svg>
