<?xml version="1.0" encoding="UTF-8"?>
<!-- Generated by Pixelmator Pro 3.3.2 -->
<svg width="1024" height="1024" viewBox="0 0 1024 1024" xmlns="http://www.w3.org/2000/svg" xmlns:xlink="http://www.w3.org/1999/xlink">
    <g id="Base">
        <path id="Clipping-Mask" fill="#000000" fill-rule="evenodd" stroke="none" d="M 1024 512 C 1024 229.230225 794.769775 0 512 0 C 229.230209 0 0 229.230225 0 512 C 0 794.769775 229.230209 1024 512 1024 C 794.769775 1024 1024 794.769775 1024 512 Z"/>
        <mask id="mask1" maskUnits="userSpaceOnUse" maskContentUnits="userSpaceOnUse" mask-type="alpha">
            <path id="path1" fill="#000000" fill-rule="evenodd" stroke="none" d="M 1024 512 C 1024 229.230225 794.769775 0 512 0 C 229.230209 0 0 229.230225 0 512 C 0 794.769775 229.230209 1024 512 1024 C 794.769775 1024 1024 794.769775 1024 512 Z"/>
        </mask>
        <g id="Untitled-layer" mask="url(#mask1)">
            <linearGradient id="linearGradient1" x1="512" y1="1024" x2="512" y2="0" gradientUnits="userSpaceOnUse">
                <stop offset="0" stop-color="#0074c6" stop-opacity="1"/>
                <stop offset="1" stop-color="#31aaff" stop-opacity="1"/>
            </linearGradient>
            <path id="Gradient" fill="url(#linearGradient1)" fill-rule="evenodd" stroke="none" d="M 0 1024 L 1024 1024 L 1024 0 L 0 0 Z"/>
        </g>
    </g>
    <g id="Glyph">
        <path id="Bottom" fill="#ffffff" fill-rule="evenodd" stroke="none" d="M 294.418213 603.144653 C 274.891998 622.670898 274.891998 654.329102 294.418213 673.855347 L 476.144653 855.581787 C 495.670868 875.107971 527.329102 875.108032 546.855347 855.581787 L 728.581787 673.855347 C 748.107971 654.329102 748.107971 622.670898 728.581787 603.144653 L 546.855347 421.418213 C 527.329102 401.892029 495.670868 401.892029 476.144653 421.418213 Z"/>
        <path id="Top" fill="#ffffff" fill-rule="evenodd" stroke="none" d="M 294.418213 351.144653 C 274.891998 370.670898 274.891998 402.329102 294.418213 421.855347 L 476.144653 603.581787 C 495.670868 623.108032 527.329102 623.108032 546.855347 603.581787 L 728.581787 421.855347 C 748.107971 402.329102 748.107971 370.670898 728.581787 351.144653 L 546.855347 169.418213 C 527.329102 149.892029 495.670868 149.892029 476.144653 169.418213 Z"/>
    </g>
</svg>
