<?xml version="1.0" encoding="UTF-8"?>
<!-- Generated by Pixelmator Pro 3.3.2 -->
<svg width="1024" height="1024" viewBox="0 0 1024 1024" xmlns="http://www.w3.org/2000/svg" xmlns:xlink="http://www.w3.org/1999/xlink">
    <g id="Icon">
        <linearGradient id="linearGradient1" x1="512" y1="1024" x2="512" y2="0" gradientUnits="userSpaceOnUse">
            <stop offset="0" stop-color="#ff8500" stop-opacity="1"/>
            <stop offset="1" stop-color="#ffc900" stop-opacity="1"/>
        </linearGradient>
        <path id="Base" fill="url(#linearGradient1)" fill-rule="evenodd" stroke="none" d="M 1024 512 C 1024 229.230225 794.769775 0 512 0 C 229.230209 0 0 229.230225 0 512 C 0 794.769775 229.230209 1024 512 1024 C 794.769775 1024 1024 794.769775 1024 512 Z"/>
        <mask id="mask1" maskUnits="userSpaceOnUse" maskContentUnits="userSpaceOnUse" mask-type="alpha">
            <linearGradient id="linearGradient2" x1="512" y1="1024" x2="512" y2="0" gradientUnits="userSpaceOnUse">
                <stop offset="0" stop-color="#ff8500" stop-opacity="1"/>
                <stop offset="1" stop-color="#ffc900" stop-opacity="1"/>
            </linearGradient>
            <path id="path1" fill="url(#linearGradient2)" fill-rule="evenodd" stroke="none" d="M 1024 512 C 1024 229.230225 794.769775 0 512 0 C 229.230209 0 0 229.230225 0 512 C 0 794.769775 229.230209 1024 512 1024 C 794.769775 1024 1024 794.769775 1024 512 Z"/>
        </mask>
        <g id="Untitled-layer" mask="url(#mask1)">
            <path id="Body" fill="#ffffff" fill-rule="evenodd" stroke="none" d="M 818 1116 C 818 871.99292 680.999146 674.186035 512 674.186035 C 343.000854 674.186035 206 871.99292 206 1116 C 206 1360.00708 343.000854 1557.813965 512 1557.813965 C 680.999146 1557.813965 818 1360.00708 818 1116 Z"/>
        </g>
        <path id="Head" fill="#ffffff" fill-rule="evenodd" stroke="none" d="M 757 400 C 757 264.690247 647.309753 155 512 155 C 376.690247 155 267 264.690247 267 400 C 267 535.309753 376.690247 645 512 645 C 647.309753 645 757 535.309753 757 400 Z"/>
    </g>
</svg>
